<?xml version="1.0" standalone="no"?>
<!DOCTYPE svg PUBLIC "-//W3C//DTD SVG 20010904//EN"
 "http://www.w3.org/TR/2001/REC-SVG-20010904/DTD/svg10.dtd">
<svg version="1.0" xmlns="http://www.w3.org/2000/svg"
 width="500.000000pt" height="500.000000pt" viewBox="0 0 500.000000 500.000000"
 preserveAspectRatio="xMidYMid meet">

<g transform="translate(0.000000,500.000000) scale(0.100000,-0.100000)"
fill="#000000" stroke="none">
<path d="M3460 3476 c0 -3 157 -226 349 -497 l350 -492 -57 -81 c-31 -45 -189
-268 -350 -496 l-292 -415 342 -3 c333 -2 344 -2 359 18 37 44 681 969 681
977 0 4 -157 230 -347 501 l-347 492 -344 0 c-189 0 -344 -2 -344 -4z"/>
<path d="M427 3461 l-68 -6 322 -455 c177 -250 333 -471 346 -492 l24 -36
-345 -491 c-190 -270 -346 -496 -346 -502 0 -8 18 -10 61 -5 34 3 189 6 344 6
l281 0 34 48 c249 353 653 938 653 946 0 6 -103 157 -228 336 -126 179 -281
399 -345 490 l-116 165 -274 1 c-151 0 -306 -2 -343 -5z"/>
<path d="M1623 3290 c-71 -99 -129 -187 -131 -194 -3 -13 335 -486 347 -486 6
1 593 833 599 851 2 5 -133 9 -342 9 l-346 0 -127 -180z"/>
<path d="M2573 3457 c2 -7 158 -230 346 -495 201 -285 339 -488 335 -495 -4
-7 -160 -229 -346 -494 -186 -264 -338 -484 -338 -487 0 -3 154 -6 343 -6
l342 0 344 493 c189 270 344 497 344 503 0 6 -155 231 -344 502 l-344 491
-344 0 c-272 1 -342 -2 -338 -12z"/>
<path d="M1665 2104 c-88 -125 -163 -233 -168 -240 -5 -8 38 -80 120 -201
l128 -188 348 -3 c191 -1 347 1 347 4 0 10 -603 854 -609 854 -4 0 -78 -102
-166 -226z"/>
</g>
</svg>
